<svg width="24" height="11" viewBox="0 0 24 11" fill="none" xmlns="http://www.w3.org/2000/svg">
<path fill-rule="evenodd" clip-rule="evenodd" d="M15.9844 0.228904C16.0723 0.156345 16.1767 0.0987763 16.2916 0.0594972C16.4065 0.020218 16.5297 0 16.6541 0C16.7785 0 16.9017 0.020218 17.0166 0.0594972C17.1315 0.0987763 17.2359 0.156345 17.3237 0.228904L22.9987 4.9038C23.0868 4.97618 23.1567 5.06216 23.2044 5.15682C23.2521 5.25148 23.2766 5.35295 23.2766 5.45544C23.2766 5.55792 23.2521 5.6594 23.2044 5.75406C23.1567 5.84872 23.0868 5.9347 22.9987 6.00708L17.3237 10.682C17.1461 10.8283 16.9052 10.9105 16.6541 10.9105C16.4029 10.9105 16.162 10.8283 15.9844 10.682C15.8068 10.5357 15.707 10.3372 15.707 10.1303C15.707 9.92343 15.8068 9.725 15.9844 9.5787L20.9917 5.45544L15.9844 1.33218C15.8963 1.2598 15.8265 1.17382 15.7788 1.07916C15.7311 0.984506 15.7065 0.883027 15.7065 0.780542C15.7065 0.678057 15.7311 0.576579 15.7788 0.481919C15.8265 0.38726 15.8963 0.30128 15.9844 0.228904V0.228904Z" fill="white"/>
<path fill-rule="evenodd" clip-rule="evenodd" d="M0.574951 5.45542C0.574951 5.24878 0.674602 5.0506 0.851981 4.90448C1.02936 4.75836 1.26994 4.67627 1.52079 4.67627H21.3834C21.6342 4.67627 21.8748 4.75836 22.0522 4.90448C22.2296 5.0506 22.3292 5.24878 22.3292 5.45542C22.3292 5.66206 22.2296 5.86024 22.0522 6.00636C21.8748 6.15248 21.6342 6.23457 21.3834 6.23457H1.52079C1.26994 6.23457 1.02936 6.15248 0.851981 6.00636C0.674602 5.86024 0.574951 5.66206 0.574951 5.45542Z" fill="white"/>
</svg>
